M48
;DRILL file {KiCad 4.0.7} date Mon Jan 29 22:04:20 2018
;FORMAT={-:-/ absolute / metric / decimal}
FMAT,2
METRIC,TZ
T1C0.600
T2C1.000
T3C1.400
%
G90
G05
M71
T1
X239.02Y-65.36
X240.29Y-65.36
X241.56Y-65.36
T2
X115.57Y-66.04
X118.745Y-51.435
X126.365Y-59.055
X133.985Y-66.04
X137.795Y-52.07
X143.51Y-59.69
X151.765Y-65.405
X153.67Y-52.705
X161.925Y-58.42
X170.815Y-66.04
X173.355Y-51.435
X180.34Y-58.42
X189.23Y-66.04
X191.77Y-51.435
X198.755Y-60.325
X207.645Y-66.675
X210.185Y-51.435
X218.44Y-59.69
X226.06Y-66.675
T3
X113.03Y-87.63
X118.03Y-87.63
X131.445Y-87.63
X136.445Y-87.63
X149.86Y-87.63
X154.86Y-87.63
X168.275Y-87.63
X173.275Y-87.63
X185.725Y-41.275
X186.69Y-87.63
X190.725Y-41.275
X191.69Y-87.63
X195.725Y-41.275
X200.725Y-41.275
X205.105Y-87.63
X205.725Y-41.275
X210.105Y-87.63
X210.725Y-41.275
X215.725Y-41.275
X220.725Y-41.275
X223.52Y-87.63
X225.725Y-41.275
X228.52Y-87.63
X230.725Y-41.275
X235.725Y-41.275
X240.725Y-41.275
T0
M30
