G04 #@! TF.FileFunction,Copper,L2,Bot,Signal*
%FSLAX46Y46*%
G04 Gerber Fmt 4.6, Leading zero omitted, Abs format (unit mm)*
G04 Created by KiCad (PCBNEW 4.0.7) date Sun Jan 28 04:55:33 2018*
%MOMM*%
%LPD*%
G01*
G04 APERTURE LIST*
%ADD10C,0.100000*%
%ADD11C,0.150000*%
%ADD12C,2.500000*%
%ADD13O,0.900000X1.500000*%
%ADD14R,0.900000X1.500000*%
%ADD15C,1.400000*%
%ADD16C,0.250000*%
%ADD17C,0.254000*%
G04 APERTURE END LIST*
D10*
D11*
X106680000Y-33655000D02*
X106680000Y-97155000D01*
X106680000Y-33655000D02*
X248285000Y-33655000D01*
X248285000Y-97155000D02*
X106680000Y-97155000D01*
X248285000Y-33655000D02*
X248285000Y-97155000D01*
D12*
X228520000Y-87630000D03*
X223520000Y-87630000D03*
X240725000Y-41275000D03*
X235725000Y-41275000D03*
X230725000Y-41275000D03*
X225725000Y-41275000D03*
X220725000Y-41275000D03*
X215725000Y-41275000D03*
X210725000Y-41275000D03*
X205725000Y-41275000D03*
X200725000Y-41275000D03*
X195725000Y-41275000D03*
X190725000Y-41275000D03*
X185725000Y-41275000D03*
X210105000Y-87630000D03*
X205105000Y-87630000D03*
X191690000Y-87630000D03*
X186690000Y-87630000D03*
X173275000Y-87630000D03*
X168275000Y-87630000D03*
X154860000Y-87630000D03*
X149860000Y-87630000D03*
X136445000Y-87630000D03*
X131445000Y-87630000D03*
X118030000Y-87630000D03*
X113030000Y-87630000D03*
D13*
X240290000Y-65360000D03*
X241560000Y-65360000D03*
D14*
X239020000Y-65360000D03*
D15*
X226060000Y-66675000D03*
X115570000Y-66040000D03*
X126365000Y-59055000D03*
X133985000Y-66040000D03*
X189230000Y-66040000D03*
X170815000Y-66040000D03*
X143510000Y-59690000D03*
X151765000Y-65405000D03*
X161925000Y-58420000D03*
X180340000Y-58420000D03*
X198755000Y-60325000D03*
X207645000Y-66675000D03*
X218440000Y-59690000D03*
X210185000Y-51435000D03*
X191770000Y-51435000D03*
X173355000Y-51435000D03*
X153670000Y-52705000D03*
X137795000Y-52070000D03*
X118745000Y-51435000D03*
D16*
X126365000Y-59055000D02*
X126365000Y-66040000D01*
X126365000Y-66040000D02*
X140335000Y-80010000D01*
X140335000Y-80010000D02*
X149860000Y-80010000D01*
X133985000Y-66040000D02*
X135890000Y-66040000D01*
X135890000Y-66040000D02*
X149860000Y-80010000D01*
X149860000Y-80010000D02*
X157480000Y-80010000D01*
X189230000Y-66040000D02*
X189230000Y-72390000D01*
X189230000Y-72390000D02*
X181610000Y-80010000D01*
X170815000Y-66040000D02*
X170815000Y-71755000D01*
X170815000Y-71755000D02*
X179070000Y-80010000D01*
X143510000Y-59690000D02*
X143510000Y-66040000D01*
X143510000Y-66040000D02*
X157480000Y-80010000D01*
X157480000Y-80010000D02*
X167005000Y-80010000D01*
X151765000Y-65405000D02*
X166370000Y-80010000D01*
X166370000Y-80010000D02*
X167005000Y-80010000D01*
X167005000Y-80010000D02*
X175895000Y-80010000D01*
X180975000Y-80010000D02*
X180340000Y-80010000D01*
X179070000Y-80010000D02*
X180340000Y-80010000D01*
X175895000Y-80010000D02*
X179070000Y-80010000D01*
X161925000Y-66040000D02*
X175895000Y-80010000D01*
X161925000Y-66040000D02*
X161925000Y-58420000D01*
X180340000Y-58420000D02*
X180340000Y-79375000D01*
X180975000Y-80010000D02*
X181610000Y-80010000D01*
X181610000Y-80010000D02*
X182880000Y-80010000D01*
X180340000Y-79375000D02*
X180975000Y-80010000D01*
X198755000Y-60325000D02*
X198755000Y-64135000D01*
X198755000Y-64135000D02*
X182880000Y-80010000D01*
X207645000Y-66675000D02*
X207645000Y-67310000D01*
X207645000Y-67310000D02*
X194945000Y-80010000D01*
X218440000Y-59690000D02*
X218440000Y-69850000D01*
X208280000Y-80010000D02*
X194945000Y-80010000D01*
X218440000Y-69850000D02*
X208280000Y-80010000D01*
X194945000Y-80010000D02*
X182880000Y-80010000D01*
X218440000Y-59690000D02*
X218420000Y-59670000D01*
X225725000Y-41275000D02*
X225725000Y-44150000D01*
X218440000Y-51435000D02*
X210185000Y-51435000D01*
X225725000Y-44150000D02*
X218440000Y-51435000D01*
X220725000Y-41275000D02*
X220725000Y-44705000D01*
X193675000Y-49530000D02*
X191770000Y-51435000D01*
X215900000Y-49530000D02*
X193675000Y-49530000D01*
X220725000Y-44705000D02*
X215900000Y-49530000D01*
X215725000Y-47800000D02*
X214630000Y-48895000D01*
X214630000Y-48895000D02*
X175895000Y-48895000D01*
X175895000Y-48895000D02*
X173355000Y-51435000D01*
X215725000Y-47800000D02*
X215725000Y-41275000D01*
X153670000Y-52705000D02*
X170180000Y-52705000D01*
X203605002Y-48394998D02*
X210725000Y-41275000D01*
X174490002Y-48394998D02*
X203605002Y-48394998D01*
X170180000Y-52705000D02*
X174490002Y-48394998D01*
X139065000Y-52070000D02*
X151130000Y-52070000D01*
X199375000Y-47625000D02*
X205725000Y-41275000D01*
X155575000Y-47625000D02*
X199375000Y-47625000D01*
X151130000Y-52070000D02*
X155575000Y-47625000D01*
X137795000Y-52070000D02*
X139065000Y-52070000D01*
X139065000Y-52070000D02*
X139700000Y-52070000D01*
X135255000Y-51435000D02*
X135890000Y-51435000D01*
X118745000Y-51435000D02*
X135255000Y-51435000D01*
X195645000Y-46355000D02*
X200725000Y-41275000D01*
X140970000Y-46355000D02*
X195645000Y-46355000D01*
X135890000Y-51435000D02*
X140970000Y-46355000D01*
D17*
G36*
X246888000Y-95758000D02*
X108712000Y-95758000D01*
X108712000Y-88003305D01*
X111144674Y-88003305D01*
X111431043Y-88696372D01*
X111960839Y-89227093D01*
X112653405Y-89514672D01*
X113403305Y-89515326D01*
X114096372Y-89228957D01*
X114627093Y-88699161D01*
X114914672Y-88006595D01*
X114914674Y-88003305D01*
X116144674Y-88003305D01*
X116431043Y-88696372D01*
X116960839Y-89227093D01*
X117653405Y-89514672D01*
X118403305Y-89515326D01*
X119096372Y-89228957D01*
X119627093Y-88699161D01*
X119914672Y-88006595D01*
X119914674Y-88003305D01*
X129559674Y-88003305D01*
X129846043Y-88696372D01*
X130375839Y-89227093D01*
X131068405Y-89514672D01*
X131818305Y-89515326D01*
X132511372Y-89228957D01*
X133042093Y-88699161D01*
X133329672Y-88006595D01*
X133329674Y-88003305D01*
X134559674Y-88003305D01*
X134846043Y-88696372D01*
X135375839Y-89227093D01*
X136068405Y-89514672D01*
X136818305Y-89515326D01*
X137511372Y-89228957D01*
X138042093Y-88699161D01*
X138329672Y-88006595D01*
X138329674Y-88003305D01*
X147974674Y-88003305D01*
X148261043Y-88696372D01*
X148790839Y-89227093D01*
X149483405Y-89514672D01*
X150233305Y-89515326D01*
X150926372Y-89228957D01*
X151457093Y-88699161D01*
X151744672Y-88006595D01*
X151744674Y-88003305D01*
X152974674Y-88003305D01*
X153261043Y-88696372D01*
X153790839Y-89227093D01*
X154483405Y-89514672D01*
X155233305Y-89515326D01*
X155926372Y-89228957D01*
X156457093Y-88699161D01*
X156744672Y-88006595D01*
X156744674Y-88003305D01*
X166389674Y-88003305D01*
X166676043Y-88696372D01*
X167205839Y-89227093D01*
X167898405Y-89514672D01*
X168648305Y-89515326D01*
X169341372Y-89228957D01*
X169872093Y-88699161D01*
X170159672Y-88006595D01*
X170159674Y-88003305D01*
X171389674Y-88003305D01*
X171676043Y-88696372D01*
X172205839Y-89227093D01*
X172898405Y-89514672D01*
X173648305Y-89515326D01*
X174341372Y-89228957D01*
X174872093Y-88699161D01*
X175159672Y-88006595D01*
X175159674Y-88003305D01*
X184804674Y-88003305D01*
X185091043Y-88696372D01*
X185620839Y-89227093D01*
X186313405Y-89514672D01*
X187063305Y-89515326D01*
X187756372Y-89228957D01*
X188287093Y-88699161D01*
X188574672Y-88006595D01*
X188574674Y-88003305D01*
X189804674Y-88003305D01*
X190091043Y-88696372D01*
X190620839Y-89227093D01*
X191313405Y-89514672D01*
X192063305Y-89515326D01*
X192756372Y-89228957D01*
X193287093Y-88699161D01*
X193574672Y-88006595D01*
X193574674Y-88003305D01*
X203219674Y-88003305D01*
X203506043Y-88696372D01*
X204035839Y-89227093D01*
X204728405Y-89514672D01*
X205478305Y-89515326D01*
X206171372Y-89228957D01*
X206702093Y-88699161D01*
X206989672Y-88006595D01*
X206989674Y-88003305D01*
X208219674Y-88003305D01*
X208506043Y-88696372D01*
X209035839Y-89227093D01*
X209728405Y-89514672D01*
X210478305Y-89515326D01*
X211171372Y-89228957D01*
X211702093Y-88699161D01*
X211989672Y-88006595D01*
X211989674Y-88003305D01*
X221634674Y-88003305D01*
X221921043Y-88696372D01*
X222450839Y-89227093D01*
X223143405Y-89514672D01*
X223893305Y-89515326D01*
X224586372Y-89228957D01*
X225117093Y-88699161D01*
X225404672Y-88006595D01*
X225404674Y-88003305D01*
X226634674Y-88003305D01*
X226921043Y-88696372D01*
X227450839Y-89227093D01*
X228143405Y-89514672D01*
X228893305Y-89515326D01*
X229586372Y-89228957D01*
X230117093Y-88699161D01*
X230404672Y-88006595D01*
X230405326Y-87256695D01*
X230118957Y-86563628D01*
X229589161Y-86032907D01*
X228896595Y-85745328D01*
X228146695Y-85744674D01*
X227453628Y-86031043D01*
X226922907Y-86560839D01*
X226635328Y-87253405D01*
X226634674Y-88003305D01*
X225404674Y-88003305D01*
X225405326Y-87256695D01*
X225118957Y-86563628D01*
X224589161Y-86032907D01*
X223896595Y-85745328D01*
X223146695Y-85744674D01*
X222453628Y-86031043D01*
X221922907Y-86560839D01*
X221635328Y-87253405D01*
X221634674Y-88003305D01*
X211989674Y-88003305D01*
X211990326Y-87256695D01*
X211703957Y-86563628D01*
X211174161Y-86032907D01*
X210481595Y-85745328D01*
X209731695Y-85744674D01*
X209038628Y-86031043D01*
X208507907Y-86560839D01*
X208220328Y-87253405D01*
X208219674Y-88003305D01*
X206989674Y-88003305D01*
X206990326Y-87256695D01*
X206703957Y-86563628D01*
X206174161Y-86032907D01*
X205481595Y-85745328D01*
X204731695Y-85744674D01*
X204038628Y-86031043D01*
X203507907Y-86560839D01*
X203220328Y-87253405D01*
X203219674Y-88003305D01*
X193574674Y-88003305D01*
X193575326Y-87256695D01*
X193288957Y-86563628D01*
X192759161Y-86032907D01*
X192066595Y-85745328D01*
X191316695Y-85744674D01*
X190623628Y-86031043D01*
X190092907Y-86560839D01*
X189805328Y-87253405D01*
X189804674Y-88003305D01*
X188574674Y-88003305D01*
X188575326Y-87256695D01*
X188288957Y-86563628D01*
X187759161Y-86032907D01*
X187066595Y-85745328D01*
X186316695Y-85744674D01*
X185623628Y-86031043D01*
X185092907Y-86560839D01*
X184805328Y-87253405D01*
X184804674Y-88003305D01*
X175159674Y-88003305D01*
X175160326Y-87256695D01*
X174873957Y-86563628D01*
X174344161Y-86032907D01*
X173651595Y-85745328D01*
X172901695Y-85744674D01*
X172208628Y-86031043D01*
X171677907Y-86560839D01*
X171390328Y-87253405D01*
X171389674Y-88003305D01*
X170159674Y-88003305D01*
X170160326Y-87256695D01*
X169873957Y-86563628D01*
X169344161Y-86032907D01*
X168651595Y-85745328D01*
X167901695Y-85744674D01*
X167208628Y-86031043D01*
X166677907Y-86560839D01*
X166390328Y-87253405D01*
X166389674Y-88003305D01*
X156744674Y-88003305D01*
X156745326Y-87256695D01*
X156458957Y-86563628D01*
X155929161Y-86032907D01*
X155236595Y-85745328D01*
X154486695Y-85744674D01*
X153793628Y-86031043D01*
X153262907Y-86560839D01*
X152975328Y-87253405D01*
X152974674Y-88003305D01*
X151744674Y-88003305D01*
X151745326Y-87256695D01*
X151458957Y-86563628D01*
X150929161Y-86032907D01*
X150236595Y-85745328D01*
X149486695Y-85744674D01*
X148793628Y-86031043D01*
X148262907Y-86560839D01*
X147975328Y-87253405D01*
X147974674Y-88003305D01*
X138329674Y-88003305D01*
X138330326Y-87256695D01*
X138043957Y-86563628D01*
X137514161Y-86032907D01*
X136821595Y-85745328D01*
X136071695Y-85744674D01*
X135378628Y-86031043D01*
X134847907Y-86560839D01*
X134560328Y-87253405D01*
X134559674Y-88003305D01*
X133329674Y-88003305D01*
X133330326Y-87256695D01*
X133043957Y-86563628D01*
X132514161Y-86032907D01*
X131821595Y-85745328D01*
X131071695Y-85744674D01*
X130378628Y-86031043D01*
X129847907Y-86560839D01*
X129560328Y-87253405D01*
X129559674Y-88003305D01*
X119914674Y-88003305D01*
X119915326Y-87256695D01*
X119628957Y-86563628D01*
X119099161Y-86032907D01*
X118406595Y-85745328D01*
X117656695Y-85744674D01*
X116963628Y-86031043D01*
X116432907Y-86560839D01*
X116145328Y-87253405D01*
X116144674Y-88003305D01*
X114914674Y-88003305D01*
X114915326Y-87256695D01*
X114628957Y-86563628D01*
X114099161Y-86032907D01*
X113406595Y-85745328D01*
X112656695Y-85744674D01*
X111963628Y-86031043D01*
X111432907Y-86560839D01*
X111145328Y-87253405D01*
X111144674Y-88003305D01*
X108712000Y-88003305D01*
X108712000Y-64610000D01*
X237922560Y-64610000D01*
X237922560Y-66110000D01*
X237966838Y-66345317D01*
X238105910Y-66561441D01*
X238318110Y-66706431D01*
X238570000Y-66757440D01*
X239470000Y-66757440D01*
X239705317Y-66713162D01*
X239809655Y-66646022D01*
X239874788Y-66689543D01*
X240290000Y-66772134D01*
X240705212Y-66689543D01*
X240925000Y-66542685D01*
X241144788Y-66689543D01*
X241560000Y-66772134D01*
X241975212Y-66689543D01*
X242327211Y-66454345D01*
X242562409Y-66102346D01*
X242645000Y-65687134D01*
X242645000Y-65032866D01*
X242562409Y-64617654D01*
X242327211Y-64265655D01*
X241975212Y-64030457D01*
X241560000Y-63947866D01*
X241144788Y-64030457D01*
X240925000Y-64177315D01*
X240705212Y-64030457D01*
X240290000Y-63947866D01*
X239874788Y-64030457D01*
X239809981Y-64073759D01*
X239721890Y-64013569D01*
X239470000Y-63962560D01*
X238570000Y-63962560D01*
X238334683Y-64006838D01*
X238118559Y-64145910D01*
X237973569Y-64358110D01*
X237922560Y-64610000D01*
X108712000Y-64610000D01*
X108712000Y-51699383D01*
X117409769Y-51699383D01*
X117612582Y-52190229D01*
X117987796Y-52566098D01*
X118478287Y-52769768D01*
X119009383Y-52770231D01*
X119500229Y-52567418D01*
X119873297Y-52195000D01*
X135890000Y-52195000D01*
X136180839Y-52137148D01*
X136427401Y-51972401D01*
X136460113Y-51939689D01*
X136459769Y-52334383D01*
X136662582Y-52825229D01*
X137037796Y-53201098D01*
X137528287Y-53404768D01*
X138059383Y-53405231D01*
X138550229Y-53202418D01*
X138923297Y-52830000D01*
X151130000Y-52830000D01*
X151420839Y-52772148D01*
X151667401Y-52607401D01*
X155889802Y-48385000D01*
X173425198Y-48385000D01*
X169865198Y-51945000D01*
X154797655Y-51945000D01*
X154427204Y-51573902D01*
X153936713Y-51370232D01*
X153405617Y-51369769D01*
X152914771Y-51572582D01*
X152538902Y-51947796D01*
X152335232Y-52438287D01*
X152334769Y-52969383D01*
X152537582Y-53460229D01*
X152912796Y-53836098D01*
X153403287Y-54039768D01*
X153934383Y-54040231D01*
X154425229Y-53837418D01*
X154798297Y-53465000D01*
X170180000Y-53465000D01*
X170470839Y-53407148D01*
X170717401Y-53242401D01*
X172090131Y-51869671D01*
X172222582Y-52190229D01*
X172597796Y-52566098D01*
X173088287Y-52769768D01*
X173619383Y-52770231D01*
X174110229Y-52567418D01*
X174486098Y-52192204D01*
X174689768Y-51701713D01*
X174690228Y-51174574D01*
X176209802Y-49655000D01*
X192475198Y-49655000D01*
X192029972Y-50100226D01*
X191505617Y-50099769D01*
X191014771Y-50302582D01*
X190638902Y-50677796D01*
X190435232Y-51168287D01*
X190434769Y-51699383D01*
X190637582Y-52190229D01*
X191012796Y-52566098D01*
X191503287Y-52769768D01*
X192034383Y-52770231D01*
X192525229Y-52567418D01*
X192901098Y-52192204D01*
X193104768Y-51701713D01*
X193105228Y-51174574D01*
X193989802Y-50290000D01*
X209460222Y-50290000D01*
X209429771Y-50302582D01*
X209053902Y-50677796D01*
X208850232Y-51168287D01*
X208849769Y-51699383D01*
X209052582Y-52190229D01*
X209427796Y-52566098D01*
X209918287Y-52769768D01*
X210449383Y-52770231D01*
X210940229Y-52567418D01*
X211313297Y-52195000D01*
X218440000Y-52195000D01*
X218730839Y-52137148D01*
X218977401Y-51972401D01*
X226262401Y-44687401D01*
X226427148Y-44440839D01*
X226485000Y-44150000D01*
X226485000Y-43000547D01*
X226791372Y-42873957D01*
X227322093Y-42344161D01*
X227609672Y-41651595D01*
X227609674Y-41648305D01*
X228839674Y-41648305D01*
X229126043Y-42341372D01*
X229655839Y-42872093D01*
X230348405Y-43159672D01*
X231098305Y-43160326D01*
X231791372Y-42873957D01*
X232322093Y-42344161D01*
X232609672Y-41651595D01*
X232609674Y-41648305D01*
X233839674Y-41648305D01*
X234126043Y-42341372D01*
X234655839Y-42872093D01*
X235348405Y-43159672D01*
X236098305Y-43160326D01*
X236791372Y-42873957D01*
X237057472Y-42608320D01*
X239571285Y-42608320D01*
X239700533Y-42901123D01*
X240400806Y-43169388D01*
X241150435Y-43149250D01*
X241749467Y-42901123D01*
X241878715Y-42608320D01*
X240725000Y-41454605D01*
X239571285Y-42608320D01*
X237057472Y-42608320D01*
X237322093Y-42344161D01*
X237609672Y-41651595D01*
X237610283Y-40950806D01*
X238830612Y-40950806D01*
X238850750Y-41700435D01*
X239098877Y-42299467D01*
X239391680Y-42428715D01*
X240545395Y-41275000D01*
X240904605Y-41275000D01*
X242058320Y-42428715D01*
X242351123Y-42299467D01*
X242619388Y-41599194D01*
X242599250Y-40849565D01*
X242351123Y-40250533D01*
X242058320Y-40121285D01*
X240904605Y-41275000D01*
X240545395Y-41275000D01*
X239391680Y-40121285D01*
X239098877Y-40250533D01*
X238830612Y-40950806D01*
X237610283Y-40950806D01*
X237610326Y-40901695D01*
X237323957Y-40208628D01*
X237057475Y-39941680D01*
X239571285Y-39941680D01*
X240725000Y-41095395D01*
X241878715Y-39941680D01*
X241749467Y-39648877D01*
X241049194Y-39380612D01*
X240299565Y-39400750D01*
X239700533Y-39648877D01*
X239571285Y-39941680D01*
X237057475Y-39941680D01*
X236794161Y-39677907D01*
X236101595Y-39390328D01*
X235351695Y-39389674D01*
X234658628Y-39676043D01*
X234127907Y-40205839D01*
X233840328Y-40898405D01*
X233839674Y-41648305D01*
X232609674Y-41648305D01*
X232610326Y-40901695D01*
X232323957Y-40208628D01*
X231794161Y-39677907D01*
X231101595Y-39390328D01*
X230351695Y-39389674D01*
X229658628Y-39676043D01*
X229127907Y-40205839D01*
X228840328Y-40898405D01*
X228839674Y-41648305D01*
X227609674Y-41648305D01*
X227610326Y-40901695D01*
X227323957Y-40208628D01*
X226794161Y-39677907D01*
X226101595Y-39390328D01*
X225351695Y-39389674D01*
X224658628Y-39676043D01*
X224127907Y-40205839D01*
X223840328Y-40898405D01*
X223839674Y-41648305D01*
X224126043Y-42341372D01*
X224655839Y-42872093D01*
X224965000Y-43000468D01*
X224965000Y-43835198D01*
X218125198Y-50675000D01*
X211312655Y-50675000D01*
X210942204Y-50303902D01*
X210908724Y-50290000D01*
X215900000Y-50290000D01*
X216190839Y-50232148D01*
X216437401Y-50067401D01*
X221262401Y-45242401D01*
X221427148Y-44995840D01*
X221436746Y-44947586D01*
X221485000Y-44705000D01*
X221485000Y-43000547D01*
X221791372Y-42873957D01*
X222322093Y-42344161D01*
X222609672Y-41651595D01*
X222610326Y-40901695D01*
X222323957Y-40208628D01*
X221794161Y-39677907D01*
X221101595Y-39390328D01*
X220351695Y-39389674D01*
X219658628Y-39676043D01*
X219127907Y-40205839D01*
X218840328Y-40898405D01*
X218839674Y-41648305D01*
X219126043Y-42341372D01*
X219655839Y-42872093D01*
X219965000Y-43000468D01*
X219965000Y-44390198D01*
X216467569Y-47887629D01*
X216485000Y-47800000D01*
X216485000Y-43000547D01*
X216791372Y-42873957D01*
X217322093Y-42344161D01*
X217609672Y-41651595D01*
X217610326Y-40901695D01*
X217323957Y-40208628D01*
X216794161Y-39677907D01*
X216101595Y-39390328D01*
X215351695Y-39389674D01*
X214658628Y-39676043D01*
X214127907Y-40205839D01*
X213840328Y-40898405D01*
X213839674Y-41648305D01*
X214126043Y-42341372D01*
X214655839Y-42872093D01*
X214965000Y-43000468D01*
X214965000Y-47485198D01*
X214315198Y-48135000D01*
X204939802Y-48135000D01*
X210042255Y-43032547D01*
X210348405Y-43159672D01*
X211098305Y-43160326D01*
X211791372Y-42873957D01*
X212322093Y-42344161D01*
X212609672Y-41651595D01*
X212610326Y-40901695D01*
X212323957Y-40208628D01*
X211794161Y-39677907D01*
X211101595Y-39390328D01*
X210351695Y-39389674D01*
X209658628Y-39676043D01*
X209127907Y-40205839D01*
X208840328Y-40898405D01*
X208839674Y-41648305D01*
X208967509Y-41957689D01*
X203290200Y-47634998D01*
X200439804Y-47634998D01*
X205042255Y-43032547D01*
X205348405Y-43159672D01*
X206098305Y-43160326D01*
X206791372Y-42873957D01*
X207322093Y-42344161D01*
X207609672Y-41651595D01*
X207610326Y-40901695D01*
X207323957Y-40208628D01*
X206794161Y-39677907D01*
X206101595Y-39390328D01*
X205351695Y-39389674D01*
X204658628Y-39676043D01*
X204127907Y-40205839D01*
X203840328Y-40898405D01*
X203839674Y-41648305D01*
X203967509Y-41957689D01*
X199060198Y-46865000D01*
X196209802Y-46865000D01*
X200042255Y-43032547D01*
X200348405Y-43159672D01*
X201098305Y-43160326D01*
X201791372Y-42873957D01*
X202322093Y-42344161D01*
X202609672Y-41651595D01*
X202610326Y-40901695D01*
X202323957Y-40208628D01*
X201794161Y-39677907D01*
X201101595Y-39390328D01*
X200351695Y-39389674D01*
X199658628Y-39676043D01*
X199127907Y-40205839D01*
X198840328Y-40898405D01*
X198839674Y-41648305D01*
X198967509Y-41957689D01*
X195330198Y-45595000D01*
X140970000Y-45595000D01*
X140679161Y-45652852D01*
X140432599Y-45817599D01*
X135575198Y-50675000D01*
X119872655Y-50675000D01*
X119502204Y-50303902D01*
X119011713Y-50100232D01*
X118480617Y-50099769D01*
X117989771Y-50302582D01*
X117613902Y-50677796D01*
X117410232Y-51168287D01*
X117409769Y-51699383D01*
X108712000Y-51699383D01*
X108712000Y-41648305D01*
X183839674Y-41648305D01*
X184126043Y-42341372D01*
X184655839Y-42872093D01*
X185348405Y-43159672D01*
X186098305Y-43160326D01*
X186791372Y-42873957D01*
X187322093Y-42344161D01*
X187609672Y-41651595D01*
X187609674Y-41648305D01*
X188839674Y-41648305D01*
X189126043Y-42341372D01*
X189655839Y-42872093D01*
X190348405Y-43159672D01*
X191098305Y-43160326D01*
X191791372Y-42873957D01*
X192322093Y-42344161D01*
X192609672Y-41651595D01*
X192609674Y-41648305D01*
X193839674Y-41648305D01*
X194126043Y-42341372D01*
X194655839Y-42872093D01*
X195348405Y-43159672D01*
X196098305Y-43160326D01*
X196791372Y-42873957D01*
X197322093Y-42344161D01*
X197609672Y-41651595D01*
X197610326Y-40901695D01*
X197323957Y-40208628D01*
X196794161Y-39677907D01*
X196101595Y-39390328D01*
X195351695Y-39389674D01*
X194658628Y-39676043D01*
X194127907Y-40205839D01*
X193840328Y-40898405D01*
X193839674Y-41648305D01*
X192609674Y-41648305D01*
X192610326Y-40901695D01*
X192323957Y-40208628D01*
X191794161Y-39677907D01*
X191101595Y-39390328D01*
X190351695Y-39389674D01*
X189658628Y-39676043D01*
X189127907Y-40205839D01*
X188840328Y-40898405D01*
X188839674Y-41648305D01*
X187609674Y-41648305D01*
X187610326Y-40901695D01*
X187323957Y-40208628D01*
X186794161Y-39677907D01*
X186101595Y-39390328D01*
X185351695Y-39389674D01*
X184658628Y-39676043D01*
X184127907Y-40205839D01*
X183840328Y-40898405D01*
X183839674Y-41648305D01*
X108712000Y-41648305D01*
X108712000Y-35052000D01*
X246888000Y-35052000D01*
X246888000Y-95758000D01*
X246888000Y-95758000D01*
G37*
X246888000Y-95758000D02*
X108712000Y-95758000D01*
X108712000Y-88003305D01*
X111144674Y-88003305D01*
X111431043Y-88696372D01*
X111960839Y-89227093D01*
X112653405Y-89514672D01*
X113403305Y-89515326D01*
X114096372Y-89228957D01*
X114627093Y-88699161D01*
X114914672Y-88006595D01*
X114914674Y-88003305D01*
X116144674Y-88003305D01*
X116431043Y-88696372D01*
X116960839Y-89227093D01*
X117653405Y-89514672D01*
X118403305Y-89515326D01*
X119096372Y-89228957D01*
X119627093Y-88699161D01*
X119914672Y-88006595D01*
X119914674Y-88003305D01*
X129559674Y-88003305D01*
X129846043Y-88696372D01*
X130375839Y-89227093D01*
X131068405Y-89514672D01*
X131818305Y-89515326D01*
X132511372Y-89228957D01*
X133042093Y-88699161D01*
X133329672Y-88006595D01*
X133329674Y-88003305D01*
X134559674Y-88003305D01*
X134846043Y-88696372D01*
X135375839Y-89227093D01*
X136068405Y-89514672D01*
X136818305Y-89515326D01*
X137511372Y-89228957D01*
X138042093Y-88699161D01*
X138329672Y-88006595D01*
X138329674Y-88003305D01*
X147974674Y-88003305D01*
X148261043Y-88696372D01*
X148790839Y-89227093D01*
X149483405Y-89514672D01*
X150233305Y-89515326D01*
X150926372Y-89228957D01*
X151457093Y-88699161D01*
X151744672Y-88006595D01*
X151744674Y-88003305D01*
X152974674Y-88003305D01*
X153261043Y-88696372D01*
X153790839Y-89227093D01*
X154483405Y-89514672D01*
X155233305Y-89515326D01*
X155926372Y-89228957D01*
X156457093Y-88699161D01*
X156744672Y-88006595D01*
X156744674Y-88003305D01*
X166389674Y-88003305D01*
X166676043Y-88696372D01*
X167205839Y-89227093D01*
X167898405Y-89514672D01*
X168648305Y-89515326D01*
X169341372Y-89228957D01*
X169872093Y-88699161D01*
X170159672Y-88006595D01*
X170159674Y-88003305D01*
X171389674Y-88003305D01*
X171676043Y-88696372D01*
X172205839Y-89227093D01*
X172898405Y-89514672D01*
X173648305Y-89515326D01*
X174341372Y-89228957D01*
X174872093Y-88699161D01*
X175159672Y-88006595D01*
X175159674Y-88003305D01*
X184804674Y-88003305D01*
X185091043Y-88696372D01*
X185620839Y-89227093D01*
X186313405Y-89514672D01*
X187063305Y-89515326D01*
X187756372Y-89228957D01*
X188287093Y-88699161D01*
X188574672Y-88006595D01*
X188574674Y-88003305D01*
X189804674Y-88003305D01*
X190091043Y-88696372D01*
X190620839Y-89227093D01*
X191313405Y-89514672D01*
X192063305Y-89515326D01*
X192756372Y-89228957D01*
X193287093Y-88699161D01*
X193574672Y-88006595D01*
X193574674Y-88003305D01*
X203219674Y-88003305D01*
X203506043Y-88696372D01*
X204035839Y-89227093D01*
X204728405Y-89514672D01*
X205478305Y-89515326D01*
X206171372Y-89228957D01*
X206702093Y-88699161D01*
X206989672Y-88006595D01*
X206989674Y-88003305D01*
X208219674Y-88003305D01*
X208506043Y-88696372D01*
X209035839Y-89227093D01*
X209728405Y-89514672D01*
X210478305Y-89515326D01*
X211171372Y-89228957D01*
X211702093Y-88699161D01*
X211989672Y-88006595D01*
X211989674Y-88003305D01*
X221634674Y-88003305D01*
X221921043Y-88696372D01*
X222450839Y-89227093D01*
X223143405Y-89514672D01*
X223893305Y-89515326D01*
X224586372Y-89228957D01*
X225117093Y-88699161D01*
X225404672Y-88006595D01*
X225404674Y-88003305D01*
X226634674Y-88003305D01*
X226921043Y-88696372D01*
X227450839Y-89227093D01*
X228143405Y-89514672D01*
X228893305Y-89515326D01*
X229586372Y-89228957D01*
X230117093Y-88699161D01*
X230404672Y-88006595D01*
X230405326Y-87256695D01*
X230118957Y-86563628D01*
X229589161Y-86032907D01*
X228896595Y-85745328D01*
X228146695Y-85744674D01*
X227453628Y-86031043D01*
X226922907Y-86560839D01*
X226635328Y-87253405D01*
X226634674Y-88003305D01*
X225404674Y-88003305D01*
X225405326Y-87256695D01*
X225118957Y-86563628D01*
X224589161Y-86032907D01*
X223896595Y-85745328D01*
X223146695Y-85744674D01*
X222453628Y-86031043D01*
X221922907Y-86560839D01*
X221635328Y-87253405D01*
X221634674Y-88003305D01*
X211989674Y-88003305D01*
X211990326Y-87256695D01*
X211703957Y-86563628D01*
X211174161Y-86032907D01*
X210481595Y-85745328D01*
X209731695Y-85744674D01*
X209038628Y-86031043D01*
X208507907Y-86560839D01*
X208220328Y-87253405D01*
X208219674Y-88003305D01*
X206989674Y-88003305D01*
X206990326Y-87256695D01*
X206703957Y-86563628D01*
X206174161Y-86032907D01*
X205481595Y-85745328D01*
X204731695Y-85744674D01*
X204038628Y-86031043D01*
X203507907Y-86560839D01*
X203220328Y-87253405D01*
X203219674Y-88003305D01*
X193574674Y-88003305D01*
X193575326Y-87256695D01*
X193288957Y-86563628D01*
X192759161Y-86032907D01*
X192066595Y-85745328D01*
X191316695Y-85744674D01*
X190623628Y-86031043D01*
X190092907Y-86560839D01*
X189805328Y-87253405D01*
X189804674Y-88003305D01*
X188574674Y-88003305D01*
X188575326Y-87256695D01*
X188288957Y-86563628D01*
X187759161Y-86032907D01*
X187066595Y-85745328D01*
X186316695Y-85744674D01*
X185623628Y-86031043D01*
X185092907Y-86560839D01*
X184805328Y-87253405D01*
X184804674Y-88003305D01*
X175159674Y-88003305D01*
X175160326Y-87256695D01*
X174873957Y-86563628D01*
X174344161Y-86032907D01*
X173651595Y-85745328D01*
X172901695Y-85744674D01*
X172208628Y-86031043D01*
X171677907Y-86560839D01*
X171390328Y-87253405D01*
X171389674Y-88003305D01*
X170159674Y-88003305D01*
X170160326Y-87256695D01*
X169873957Y-86563628D01*
X169344161Y-86032907D01*
X168651595Y-85745328D01*
X167901695Y-85744674D01*
X167208628Y-86031043D01*
X166677907Y-86560839D01*
X166390328Y-87253405D01*
X166389674Y-88003305D01*
X156744674Y-88003305D01*
X156745326Y-87256695D01*
X156458957Y-86563628D01*
X155929161Y-86032907D01*
X155236595Y-85745328D01*
X154486695Y-85744674D01*
X153793628Y-86031043D01*
X153262907Y-86560839D01*
X152975328Y-87253405D01*
X152974674Y-88003305D01*
X151744674Y-88003305D01*
X151745326Y-87256695D01*
X151458957Y-86563628D01*
X150929161Y-86032907D01*
X150236595Y-85745328D01*
X149486695Y-85744674D01*
X148793628Y-86031043D01*
X148262907Y-86560839D01*
X147975328Y-87253405D01*
X147974674Y-88003305D01*
X138329674Y-88003305D01*
X138330326Y-87256695D01*
X138043957Y-86563628D01*
X137514161Y-86032907D01*
X136821595Y-85745328D01*
X136071695Y-85744674D01*
X135378628Y-86031043D01*
X134847907Y-86560839D01*
X134560328Y-87253405D01*
X134559674Y-88003305D01*
X133329674Y-88003305D01*
X133330326Y-87256695D01*
X133043957Y-86563628D01*
X132514161Y-86032907D01*
X131821595Y-85745328D01*
X131071695Y-85744674D01*
X130378628Y-86031043D01*
X129847907Y-86560839D01*
X129560328Y-87253405D01*
X129559674Y-88003305D01*
X119914674Y-88003305D01*
X119915326Y-87256695D01*
X119628957Y-86563628D01*
X119099161Y-86032907D01*
X118406595Y-85745328D01*
X117656695Y-85744674D01*
X116963628Y-86031043D01*
X116432907Y-86560839D01*
X116145328Y-87253405D01*
X116144674Y-88003305D01*
X114914674Y-88003305D01*
X114915326Y-87256695D01*
X114628957Y-86563628D01*
X114099161Y-86032907D01*
X113406595Y-85745328D01*
X112656695Y-85744674D01*
X111963628Y-86031043D01*
X111432907Y-86560839D01*
X111145328Y-87253405D01*
X111144674Y-88003305D01*
X108712000Y-88003305D01*
X108712000Y-64610000D01*
X237922560Y-64610000D01*
X237922560Y-66110000D01*
X237966838Y-66345317D01*
X238105910Y-66561441D01*
X238318110Y-66706431D01*
X238570000Y-66757440D01*
X239470000Y-66757440D01*
X239705317Y-66713162D01*
X239809655Y-66646022D01*
X239874788Y-66689543D01*
X240290000Y-66772134D01*
X240705212Y-66689543D01*
X240925000Y-66542685D01*
X241144788Y-66689543D01*
X241560000Y-66772134D01*
X241975212Y-66689543D01*
X242327211Y-66454345D01*
X242562409Y-66102346D01*
X242645000Y-65687134D01*
X242645000Y-65032866D01*
X242562409Y-64617654D01*
X242327211Y-64265655D01*
X241975212Y-64030457D01*
X241560000Y-63947866D01*
X241144788Y-64030457D01*
X240925000Y-64177315D01*
X240705212Y-64030457D01*
X240290000Y-63947866D01*
X239874788Y-64030457D01*
X239809981Y-64073759D01*
X239721890Y-64013569D01*
X239470000Y-63962560D01*
X238570000Y-63962560D01*
X238334683Y-64006838D01*
X238118559Y-64145910D01*
X237973569Y-64358110D01*
X237922560Y-64610000D01*
X108712000Y-64610000D01*
X108712000Y-51699383D01*
X117409769Y-51699383D01*
X117612582Y-52190229D01*
X117987796Y-52566098D01*
X118478287Y-52769768D01*
X119009383Y-52770231D01*
X119500229Y-52567418D01*
X119873297Y-52195000D01*
X135890000Y-52195000D01*
X136180839Y-52137148D01*
X136427401Y-51972401D01*
X136460113Y-51939689D01*
X136459769Y-52334383D01*
X136662582Y-52825229D01*
X137037796Y-53201098D01*
X137528287Y-53404768D01*
X138059383Y-53405231D01*
X138550229Y-53202418D01*
X138923297Y-52830000D01*
X151130000Y-52830000D01*
X151420839Y-52772148D01*
X151667401Y-52607401D01*
X155889802Y-48385000D01*
X173425198Y-48385000D01*
X169865198Y-51945000D01*
X154797655Y-51945000D01*
X154427204Y-51573902D01*
X153936713Y-51370232D01*
X153405617Y-51369769D01*
X152914771Y-51572582D01*
X152538902Y-51947796D01*
X152335232Y-52438287D01*
X152334769Y-52969383D01*
X152537582Y-53460229D01*
X152912796Y-53836098D01*
X153403287Y-54039768D01*
X153934383Y-54040231D01*
X154425229Y-53837418D01*
X154798297Y-53465000D01*
X170180000Y-53465000D01*
X170470839Y-53407148D01*
X170717401Y-53242401D01*
X172090131Y-51869671D01*
X172222582Y-52190229D01*
X172597796Y-52566098D01*
X173088287Y-52769768D01*
X173619383Y-52770231D01*
X174110229Y-52567418D01*
X174486098Y-52192204D01*
X174689768Y-51701713D01*
X174690228Y-51174574D01*
X176209802Y-49655000D01*
X192475198Y-49655000D01*
X192029972Y-50100226D01*
X191505617Y-50099769D01*
X191014771Y-50302582D01*
X190638902Y-50677796D01*
X190435232Y-51168287D01*
X190434769Y-51699383D01*
X190637582Y-52190229D01*
X191012796Y-52566098D01*
X191503287Y-52769768D01*
X192034383Y-52770231D01*
X192525229Y-52567418D01*
X192901098Y-52192204D01*
X193104768Y-51701713D01*
X193105228Y-51174574D01*
X193989802Y-50290000D01*
X209460222Y-50290000D01*
X209429771Y-50302582D01*
X209053902Y-50677796D01*
X208850232Y-51168287D01*
X208849769Y-51699383D01*
X209052582Y-52190229D01*
X209427796Y-52566098D01*
X209918287Y-52769768D01*
X210449383Y-52770231D01*
X210940229Y-52567418D01*
X211313297Y-52195000D01*
X218440000Y-52195000D01*
X218730839Y-52137148D01*
X218977401Y-51972401D01*
X226262401Y-44687401D01*
X226427148Y-44440839D01*
X226485000Y-44150000D01*
X226485000Y-43000547D01*
X226791372Y-42873957D01*
X227322093Y-42344161D01*
X227609672Y-41651595D01*
X227609674Y-41648305D01*
X228839674Y-41648305D01*
X229126043Y-42341372D01*
X229655839Y-42872093D01*
X230348405Y-43159672D01*
X231098305Y-43160326D01*
X231791372Y-42873957D01*
X232322093Y-42344161D01*
X232609672Y-41651595D01*
X232609674Y-41648305D01*
X233839674Y-41648305D01*
X234126043Y-42341372D01*
X234655839Y-42872093D01*
X235348405Y-43159672D01*
X236098305Y-43160326D01*
X236791372Y-42873957D01*
X237057472Y-42608320D01*
X239571285Y-42608320D01*
X239700533Y-42901123D01*
X240400806Y-43169388D01*
X241150435Y-43149250D01*
X241749467Y-42901123D01*
X241878715Y-42608320D01*
X240725000Y-41454605D01*
X239571285Y-42608320D01*
X237057472Y-42608320D01*
X237322093Y-42344161D01*
X237609672Y-41651595D01*
X237610283Y-40950806D01*
X238830612Y-40950806D01*
X238850750Y-41700435D01*
X239098877Y-42299467D01*
X239391680Y-42428715D01*
X240545395Y-41275000D01*
X240904605Y-41275000D01*
X242058320Y-42428715D01*
X242351123Y-42299467D01*
X242619388Y-41599194D01*
X242599250Y-40849565D01*
X242351123Y-40250533D01*
X242058320Y-40121285D01*
X240904605Y-41275000D01*
X240545395Y-41275000D01*
X239391680Y-40121285D01*
X239098877Y-40250533D01*
X238830612Y-40950806D01*
X237610283Y-40950806D01*
X237610326Y-40901695D01*
X237323957Y-40208628D01*
X237057475Y-39941680D01*
X239571285Y-39941680D01*
X240725000Y-41095395D01*
X241878715Y-39941680D01*
X241749467Y-39648877D01*
X241049194Y-39380612D01*
X240299565Y-39400750D01*
X239700533Y-39648877D01*
X239571285Y-39941680D01*
X237057475Y-39941680D01*
X236794161Y-39677907D01*
X236101595Y-39390328D01*
X235351695Y-39389674D01*
X234658628Y-39676043D01*
X234127907Y-40205839D01*
X233840328Y-40898405D01*
X233839674Y-41648305D01*
X232609674Y-41648305D01*
X232610326Y-40901695D01*
X232323957Y-40208628D01*
X231794161Y-39677907D01*
X231101595Y-39390328D01*
X230351695Y-39389674D01*
X229658628Y-39676043D01*
X229127907Y-40205839D01*
X228840328Y-40898405D01*
X228839674Y-41648305D01*
X227609674Y-41648305D01*
X227610326Y-40901695D01*
X227323957Y-40208628D01*
X226794161Y-39677907D01*
X226101595Y-39390328D01*
X225351695Y-39389674D01*
X224658628Y-39676043D01*
X224127907Y-40205839D01*
X223840328Y-40898405D01*
X223839674Y-41648305D01*
X224126043Y-42341372D01*
X224655839Y-42872093D01*
X224965000Y-43000468D01*
X224965000Y-43835198D01*
X218125198Y-50675000D01*
X211312655Y-50675000D01*
X210942204Y-50303902D01*
X210908724Y-50290000D01*
X215900000Y-50290000D01*
X216190839Y-50232148D01*
X216437401Y-50067401D01*
X221262401Y-45242401D01*
X221427148Y-44995840D01*
X221436746Y-44947586D01*
X221485000Y-44705000D01*
X221485000Y-43000547D01*
X221791372Y-42873957D01*
X222322093Y-42344161D01*
X222609672Y-41651595D01*
X222610326Y-40901695D01*
X222323957Y-40208628D01*
X221794161Y-39677907D01*
X221101595Y-39390328D01*
X220351695Y-39389674D01*
X219658628Y-39676043D01*
X219127907Y-40205839D01*
X218840328Y-40898405D01*
X218839674Y-41648305D01*
X219126043Y-42341372D01*
X219655839Y-42872093D01*
X219965000Y-43000468D01*
X219965000Y-44390198D01*
X216467569Y-47887629D01*
X216485000Y-47800000D01*
X216485000Y-43000547D01*
X216791372Y-42873957D01*
X217322093Y-42344161D01*
X217609672Y-41651595D01*
X217610326Y-40901695D01*
X217323957Y-40208628D01*
X216794161Y-39677907D01*
X216101595Y-39390328D01*
X215351695Y-39389674D01*
X214658628Y-39676043D01*
X214127907Y-40205839D01*
X213840328Y-40898405D01*
X213839674Y-41648305D01*
X214126043Y-42341372D01*
X214655839Y-42872093D01*
X214965000Y-43000468D01*
X214965000Y-47485198D01*
X214315198Y-48135000D01*
X204939802Y-48135000D01*
X210042255Y-43032547D01*
X210348405Y-43159672D01*
X211098305Y-43160326D01*
X211791372Y-42873957D01*
X212322093Y-42344161D01*
X212609672Y-41651595D01*
X212610326Y-40901695D01*
X212323957Y-40208628D01*
X211794161Y-39677907D01*
X211101595Y-39390328D01*
X210351695Y-39389674D01*
X209658628Y-39676043D01*
X209127907Y-40205839D01*
X208840328Y-40898405D01*
X208839674Y-41648305D01*
X208967509Y-41957689D01*
X203290200Y-47634998D01*
X200439804Y-47634998D01*
X205042255Y-43032547D01*
X205348405Y-43159672D01*
X206098305Y-43160326D01*
X206791372Y-42873957D01*
X207322093Y-42344161D01*
X207609672Y-41651595D01*
X207610326Y-40901695D01*
X207323957Y-40208628D01*
X206794161Y-39677907D01*
X206101595Y-39390328D01*
X205351695Y-39389674D01*
X204658628Y-39676043D01*
X204127907Y-40205839D01*
X203840328Y-40898405D01*
X203839674Y-41648305D01*
X203967509Y-41957689D01*
X199060198Y-46865000D01*
X196209802Y-46865000D01*
X200042255Y-43032547D01*
X200348405Y-43159672D01*
X201098305Y-43160326D01*
X201791372Y-42873957D01*
X202322093Y-42344161D01*
X202609672Y-41651595D01*
X202610326Y-40901695D01*
X202323957Y-40208628D01*
X201794161Y-39677907D01*
X201101595Y-39390328D01*
X200351695Y-39389674D01*
X199658628Y-39676043D01*
X199127907Y-40205839D01*
X198840328Y-40898405D01*
X198839674Y-41648305D01*
X198967509Y-41957689D01*
X195330198Y-45595000D01*
X140970000Y-45595000D01*
X140679161Y-45652852D01*
X140432599Y-45817599D01*
X135575198Y-50675000D01*
X119872655Y-50675000D01*
X119502204Y-50303902D01*
X119011713Y-50100232D01*
X118480617Y-50099769D01*
X117989771Y-50302582D01*
X117613902Y-50677796D01*
X117410232Y-51168287D01*
X117409769Y-51699383D01*
X108712000Y-51699383D01*
X108712000Y-41648305D01*
X183839674Y-41648305D01*
X184126043Y-42341372D01*
X184655839Y-42872093D01*
X185348405Y-43159672D01*
X186098305Y-43160326D01*
X186791372Y-42873957D01*
X187322093Y-42344161D01*
X187609672Y-41651595D01*
X187609674Y-41648305D01*
X188839674Y-41648305D01*
X189126043Y-42341372D01*
X189655839Y-42872093D01*
X190348405Y-43159672D01*
X191098305Y-43160326D01*
X191791372Y-42873957D01*
X192322093Y-42344161D01*
X192609672Y-41651595D01*
X192609674Y-41648305D01*
X193839674Y-41648305D01*
X194126043Y-42341372D01*
X194655839Y-42872093D01*
X195348405Y-43159672D01*
X196098305Y-43160326D01*
X196791372Y-42873957D01*
X197322093Y-42344161D01*
X197609672Y-41651595D01*
X197610326Y-40901695D01*
X197323957Y-40208628D01*
X196794161Y-39677907D01*
X196101595Y-39390328D01*
X195351695Y-39389674D01*
X194658628Y-39676043D01*
X194127907Y-40205839D01*
X193840328Y-40898405D01*
X193839674Y-41648305D01*
X192609674Y-41648305D01*
X192610326Y-40901695D01*
X192323957Y-40208628D01*
X191794161Y-39677907D01*
X191101595Y-39390328D01*
X190351695Y-39389674D01*
X189658628Y-39676043D01*
X189127907Y-40205839D01*
X188840328Y-40898405D01*
X188839674Y-41648305D01*
X187609674Y-41648305D01*
X187610326Y-40901695D01*
X187323957Y-40208628D01*
X186794161Y-39677907D01*
X186101595Y-39390328D01*
X185351695Y-39389674D01*
X184658628Y-39676043D01*
X184127907Y-40205839D01*
X183840328Y-40898405D01*
X183839674Y-41648305D01*
X108712000Y-41648305D01*
X108712000Y-35052000D01*
X246888000Y-35052000D01*
X246888000Y-95758000D01*
M02*
